HIERARCHY
ROOT Hips
{
	OFFSET -14.64140 90.27770 -84.91600
	CHANNELS 6 Xposition Yposition Zposition Zrotation Xrotation Yrotation
	JOINT Spine
	{
		OFFSET 0.00000 13.20850 -1.60436
		CHANNELS 3 Zrotation Xrotation Yrotation
		JOINT Spine1
		{
			OFFSET 0.00000 8.61716 0.00000
			CHANNELS 3 Zrotation Xrotation Yrotation
			JOINT Spine2
			{
				OFFSET 0.00000 8.61717 0.00000
				CHANNELS 3 Zrotation Xrotation Yrotation
				JOINT Spine3
				{
					OFFSET 0.00000 8.61717 0.00000
					CHANNELS 3 Zrotation Xrotation Yrotation
					JOINT Neck
					{
						OFFSET 0.00000 11.07920 1.10792
						CHANNELS 3 Zrotation Xrotation Yrotation
						JOINT Neck1
						{
							OFFSET 0.00000 7.08032 0.00000
							CHANNELS 3 Zrotation Xrotation Yrotation
							JOINT Head
							{
								OFFSET 0.00000 7.08031 0.00000
								CHANNELS 3 Zrotation Xrotation Yrotation
								End site
								{
									OFFSET 0.00000 0.00000 0.00000
								}
							}
						}
					}
					JOINT RightShoulder
					{
						OFFSET -0.01000 7.91373 5.19711
						CHANNELS 3 Zrotation Xrotation Yrotation
						JOINT RightArm
						{
							OFFSET -18.41580 0.00000 0.00000
							CHANNELS 3 Zrotation Xrotation Yrotation
							JOINT RightForeArm
							{
								OFFSET -29.11090 0.00000 0.00000
								CHANNELS 3 Zrotation Xrotation Yrotation
								JOINT RightHand
								{
									OFFSET -24.65040 0.00000 0.00000
									CHANNELS 3 Zrotation Xrotation Yrotation
									JOINT RightHandThumb1
									{
										OFFSET -5.35114 -0.85590 3.97906
										CHANNELS 3 Zrotation Xrotation Yrotation
										JOINT RightHandThumb2
										{
											OFFSET -4.52789 0.00000 0.00000
											CHANNELS 3 Zrotation Xrotation Yrotation
											JOINT RightHandThumb3
											{
												OFFSET -2.46976 0.00000 0.00000
												CHANNELS 3 Zrotation Xrotation Yrotation
												End site
												{
													OFFSET 0.00000 0.00000 0.00000
												}
											}
										}
									}
									JOINT RightHandIndex1
									{
										OFFSET -14.26970 0.00000 2.88139
										CHANNELS 3 Zrotation Xrotation Yrotation
										JOINT RightHandIndex2
										{
											OFFSET -5.48836 0.00000 0.00000
											CHANNELS 3 Zrotation Xrotation Yrotation
											JOINT RightHandIndex3
											{
												OFFSET -3.01859 0.00000 0.00000
												CHANNELS 3 Zrotation Xrotation Yrotation
												End site
												{
													OFFSET 0.00000 0.00000 0.00000
												}
											}
										}
									}
									JOINT RightHandMiddle1
									{
										OFFSET -14.26970 0.00000 -0.09147
										CHANNELS 3 Zrotation Xrotation Yrotation
										JOINT RightHandMiddle2
										{
											OFFSET -6.17441 0.00000 0.00000
											CHANNELS 3 Zrotation Xrotation Yrotation
											JOINT RightHandMiddle3
											{
												OFFSET -3.56743 0.00000 0.00000
												CHANNELS 3 Zrotation Xrotation Yrotation
												End site
												{
													OFFSET 0.00000 0.00000 0.00000
												}
											}
										}
									}
									JOINT RightHandRing1
									{
										OFFSET -12.69180 0.00000 -3.06433
										CHANNELS 3 Zrotation Xrotation Yrotation
										JOINT RightHandRing2
										{
											OFFSET -5.62556 0.00000 0.00000
											CHANNELS 3 Zrotation Xrotation Yrotation
											JOINT RightHandRing3
											{
												OFFSET -3.56744 0.00000 0.00000
												CHANNELS 3 Zrotation Xrotation Yrotation
												End site
												{
													OFFSET 0.00000 0.00000 0.00000
												}
											}
										}
									}
									JOINT RightHandPinky1
									{
										OFFSET -11.11390 0.00000 -6.03719
										CHANNELS 3 Zrotation Xrotation Yrotation
										JOINT RightHandPinky2
										{
											OFFSET -4.52789 0.00000 0.00000
											CHANNELS 3 Zrotation Xrotation Yrotation
											JOINT RightHandPinky3
											{
												OFFSET -2.46976 0.00000 0.00000
												CHANNELS 3 Zrotation Xrotation Yrotation
												End site
												{
													OFFSET 0.00000 0.00000 0.00000
												}
											}
										}
									}
								}
							}
						}
					}
					JOINT LeftShoulder
					{
						OFFSET 0.01000 7.91373 5.19711
						CHANNELS 3 Zrotation Xrotation Yrotation
						JOINT LeftArm
						{
							OFFSET 18.41580 0.00000 0.00000
							CHANNELS 3 Zrotation Xrotation Yrotation
							JOINT LeftForeArm
							{
								OFFSET 29.11090 0.00000 0.00000
								CHANNELS 3 Zrotation Xrotation Yrotation
								JOINT LeftHand
								{
									OFFSET 24.65040 0.00000 0.00000
									CHANNELS 3 Zrotation Xrotation Yrotation
									JOINT LeftHandThumb1
									{
										OFFSET 5.35114 -0.85590 3.97906
										CHANNELS 3 Zrotation Xrotation Yrotation
										JOINT LeftHandThumb2
										{
											OFFSET 4.52789 0.00000 0.00000
											CHANNELS 3 Zrotation Xrotation Yrotation
											JOINT LeftHandThumb3
											{
												OFFSET 2.46977 0.00000 0.00000
												CHANNELS 3 Zrotation Xrotation Yrotation
												End site
												{
													OFFSET 0.00000 0.00000 0.00000
												}
											}
										}
									}
									JOINT LeftHandIndex1
									{
										OFFSET 14.26970 0.00000 2.88139
										CHANNELS 3 Zrotation Xrotation Yrotation
										JOINT LeftHandIndex2
										{
											OFFSET 5.48836 0.00000 0.00000
											CHANNELS 3 Zrotation Xrotation Yrotation
											JOINT LeftHandIndex3
											{
												OFFSET 3.01859 0.00000 0.00000
												CHANNELS 3 Zrotation Xrotation Yrotation
												End site
												{
													OFFSET 0.00000 0.00000 0.00000
												}
											}
										}
									}
									JOINT LeftHandMiddle1
									{
										OFFSET 14.26970 0.00000 -0.09147
										CHANNELS 3 Zrotation Xrotation Yrotation
										JOINT LeftHandMiddle2
										{
											OFFSET 6.17440 0.00000 0.00000
											CHANNELS 3 Zrotation Xrotation Yrotation
											JOINT LeftHandMiddle3
											{
												OFFSET 3.56744 0.00000 0.00000
												CHANNELS 3 Zrotation Xrotation Yrotation
												End site
												{
													OFFSET 0.00000 0.00000 0.00000
												}
											}
										}
									}
									JOINT LeftHandRing1
									{
										OFFSET 12.69180 0.00000 -3.06433
										CHANNELS 3 Zrotation Xrotation Yrotation
										JOINT LeftHandRing2
										{
											OFFSET 5.62556 0.00000 0.00000
											CHANNELS 3 Zrotation Xrotation Yrotation
											JOINT LeftHandRing3
											{
												OFFSET 3.56744 0.00000 0.00000
												CHANNELS 3 Zrotation Xrotation Yrotation
												End site
												{
													OFFSET 0.00000 0.00000 0.00000
												}
											}
										}
									}
									JOINT LeftHandPinky1
									{
										OFFSET 11.11390 0.00000 -6.03719
										CHANNELS 3 Zrotation Xrotation Yrotation
										JOINT LeftHandPinky2
										{
											OFFSET 4.52789 0.00000 0.00000
											CHANNELS 3 Zrotation Xrotation Yrotation
											JOINT LeftHandPinky3
											{
												OFFSET 2.46976 0.00000 0.00000
												CHANNELS 3 Zrotation Xrotation Yrotation
												End site
												{
													OFFSET 0.00000 0.00000 0.00000
												}
											}
										}
									}
								}
							}
						}
					}
					JOINT pCube4
					{
						OFFSET 0.00000 10.91090 1.10792
						CHANNELS 3 Zrotation Xrotation Yrotation
						End site
						{
							OFFSET 0.00000 0.00000 0.00000
						}
					}
				}
			}
		}
	}
	JOINT RightUpLeg
	{
		OFFSET -9.98441 0.00000 0.00000
		CHANNELS 3 Zrotation Xrotation Yrotation
		JOINT RightLeg
		{
			OFFSET 0.00000 -42.11790 0.00000
			CHANNELS 3 Zrotation Xrotation Yrotation
			JOINT RightFoot
			{
				OFFSET 0.00000 -45.00020 -0.00001
				CHANNELS 3 Zrotation Xrotation Yrotation
				JOINT RightForeFoot
				{
					OFFSET 0.00000 -3.74820 0.00000
					CHANNELS 3 Zrotation Xrotation Yrotation
					JOINT RightToeBase
					{
						OFFSET 0.00000 0.06325 14.43120
						CHANNELS 3 Zrotation Xrotation Yrotation
						End site
						{
							OFFSET 0.00000 0.00000 0.00000
						}
					}
				}
			}
		}
	}
	JOINT LeftUpLeg
	{
		OFFSET 9.98441 0.00000 0.00000
		CHANNELS 3 Zrotation Xrotation Yrotation
		JOINT LeftLeg
		{
			OFFSET 0.00000 -42.11800 0.00000
			CHANNELS 3 Zrotation Xrotation Yrotation
			JOINT LeftFoot
			{
				OFFSET 0.00000 -45.00070 0.00000
				CHANNELS 3 Zrotation Xrotation Yrotation
				JOINT LeftForeFoot
				{
					OFFSET 0.00000 -3.74824 0.00000
					CHANNELS 3 Zrotation Xrotation Yrotation
					JOINT LeftToeBase
					{
						OFFSET 0.00000 0.06325 14.43110
						CHANNELS 3 Zrotation Xrotation Yrotation
						End site
						{
							OFFSET 0.00000 0.00000 0.00000
						}
					}
				}
			}
		}
	}
}
MOTION
Frames: 4
Frame Time: 0.050000
0.0 0.0 0.0 -0.0 0.0 -0.0 -1.3046620507157523 3.5017682082616965 -1.012755781886574 -0.9790109434911812 3.8221184802559467 0.4746877135745038 -0.9865920116267115 -0.7648626433790727 -0.3877459918939575 0.05506036424451776 0.324735573953097 -0.6506472437612784 -0.18031771671859423 11.391818264923142 -0.17295906435191286 0.003229990953726425 -0.7115469620166214 -2.3185802372582525 0.18945313171031208 -15.8512516419606 -0.12551065592130925 -2.73297328152716 2.0986932135479006 -13.82046899851224 67.54948401904552 15.890949215844502 -4.415226964793239 -4.5120976031486935 2.0090212458416294 60.83743702289357 13.95389623375788 -0.7961332470049974 -2.5074648204768124 -3.86536 -0.725977 10.6206 -1.70868e-06 -5.05035e-06 -4.22763e-05 5.3837e-07 8.68739e-07 -7.6876e-07 3.79151 9.92397e-06 1.68822e-06 1.76556e-31 -6.36111e-15 1.59028e-15 1.59028e-15 0.0 1.59028e-15 12.7179 -3.38534e-07 3.6896e-06 1.59028e-15 -3.18056e-15 -6.36111e-15 -3.18055e-15 -1.27222e-14 -6.36111e-15 20.451 2.13561e-06 4.66857e-06 -5.59711e-07 -9.78871e-07 1.24245e-06 1.11942e-06 1.95774e-06 -2.4849e-06 43.7139 5.29982e-06 -4.35576e-06 -4.8428e-07 -7.08272e-07 1.41429e-06 4.77083e-15 1.27222e-14 3.18055e-15 3.634822713252103 2.0861803980348514 12.553896553987745 -64.13724552086147 23.988870208596957 10.013072197000563 2.4289515731711964 2.67318778894018 -64.67662045330037 -10.669012532224205 -0.2270683923306661 0.32831206800027185 4.41974 -2.75119 -31.8364 2.03418e-06 8.96391e-07 2.71781e-05 3.54379e-06 -1.37708e-07 7.74142e-07 -99.3752 -3.44396e-06 -1.15962e-07 -2.94194e-05 8.15215e-07 -1.12913e-05 -1.15373e-06 -7.17353e-08 -2.96415e-06 -112.724 2.1834e-06 6.07179e-06 -2.81255e-05 -3.4463e-06 7.51827e-08 -9.56363e-07 -5.99521e-07 6.03149e-07 -94.5227 -9.2214e-07 -5.10994e-06 6.36111e-15 0.0 -1.78906e-14 1.2491e-06 6.621e-07 -9.2051e-07 -89.4629 1.15124e-05 -2.27079e-06 -1.9342e-05 1.85979e-06 1.38071e-06 -4.41391e-32 3.18056e-15 7.95139e-16 3.97569e-16 -1.09925e-15 -1.59028e-15 -20.1051 -0.55943 -19.9906 2.43385e-06 39.5646 -2.64641e-06 4.82005 -16.7989 -10.6968 3.97569e-16 0.0 -3.18056e-15 4.85298e-07 6.71905 -2.96902e-06 -14.338 7.94412 21.3297 1.10858e-05 13.1511 -7.29341e-07 5.8046 -7.45139 -3.37426 3.97569e-16 0.0 3.18055e-15 -2.06241e-08 0.0983294 7.19633e-06
0.0 0.0 0.0 -0.0 0.0 -0.0 0.6742365885615921 2.9812785989045296 -1.7088841384351798 -0.9757966715461623 3.8695928250473974 0.4726276963370851 -0.8325008109959433 -0.7798840707742294 -0.4056244915147663 -0.018148248639291657 0.10541014787082578 -0.4602477207528368 -0.607175398816905 12.159645943435534 0.3074134813819234 0.11076543112866706 -0.7468963244731159 0.07791243449636809 0.20943612014366608 -16.307653471680567 0.03209579333814263 -5.216345215287399 3.5460981408404026 -15.187546901044966 73.20911873025808 16.46122441905869 -3.3653768815567693 -13.73563641428954 -14.101783354118124 50.47385002166347 15.589272321145863 -0.667454122838853 -1.5336894538375672 -3.86536 -0.725977 10.6206 -1.70868e-06 -5.05035e-06 -4.22763e-05 5.3837e-07 8.68739e-07 -7.6876e-07 3.79151 9.92397e-06 1.68822e-06 1.76556e-31 -6.36111e-15 1.59028e-15 1.59028e-15 0.0 1.59028e-15 12.7179 -3.38534e-07 3.6896e-06 1.59028e-15 -3.18056e-15 -6.36111e-15 -3.18055e-15 -1.27222e-14 -6.36111e-15 20.451 2.13561e-06 4.66857e-06 -5.59711e-07 -9.78871e-07 1.24245e-06 1.11942e-06 1.95774e-06 -2.4849e-06 43.7139 5.29982e-06 -4.35576e-06 -4.8428e-07 -7.08272e-07 1.41429e-06 4.77083e-15 1.27222e-14 3.18055e-15 6.156705867540687 3.3350515508457255 13.334224010888537 -64.74559957745099 29.029428131628208 4.905317282799271 10.304836784455686 -12.757849076353516 -55.05756454268578 -14.22681338704995 -0.503737951268553 1.5540460088375767 4.41974 -2.75119 -31.8364 2.03418e-06 8.96391e-07 2.71781e-05 3.54379e-06 -1.37708e-07 7.74142e-07 -99.3752 -3.44396e-06 -1.15962e-07 -2.94194e-05 8.15215e-07 -1.12913e-05 -1.15373e-06 -7.17353e-08 -2.96415e-06 -112.724 2.1834e-06 6.07179e-06 -2.81255e-05 -3.4463e-06 7.51827e-08 -9.56363e-07 -5.99521e-07 6.03149e-07 -94.5227 -9.2214e-07 -5.10994e-06 6.36111e-15 0.0 -1.78906e-14 1.2491e-06 6.621e-07 -9.2051e-07 -89.4629 1.15124e-05 -2.27079e-06 -1.9342e-05 1.85979e-06 1.38071e-06 -4.41391e-32 3.18056e-15 7.95139e-16 3.97569e-16 -1.09925e-15 -1.59028e-15 -20.1051 -0.55943 -19.9906 2.43385e-06 39.5646 -2.64641e-06 4.82005 -16.7989 -10.6968 3.97569e-16 0.0 -3.18056e-15 4.85298e-07 6.71905 -2.96902e-06 -14.338 7.94412 21.3297 1.10858e-05 13.1511 -7.29341e-07 5.8046 -7.45139 -3.37426 3.97569e-16 0.0 3.18055e-15 -2.06241e-08 0.0983294 7.19633e-06
0.0 0.0 0.0 -0.0 0.0 -0.0 1.8148779239555761 2.8293619773325 -2.109711579605793 -0.9712378616224723 3.8314748243730277 0.4715064849556939 -0.7164889708982339 -0.7523147910631746 -0.4712304271753965 -0.0795072576345042 -0.050027718008114785 -0.36704190622619126 -0.9298834369703316 12.763201947801772 0.5431170853309866 0.14800371952545202 -0.6662912810165713 1.3461876402847621 0.19626612653481132 -16.465856442348805 0.11324067136983691 -6.87495971119398 4.493298446472613 -15.551698775032934 77.72918932826774 20.225776215702055 0.09363166119317208 -17.654088571907824 -15.66693331030373 49.2099327276801 14.517706051920122 -0.5406362497884426 -1.2343543083455337 -3.86536 -0.725977 10.6206 -1.70868e-06 -5.05035e-06 -4.22763e-05 5.3837e-07 8.68739e-07 -7.6876e-07 3.79151 9.92397e-06 1.68822e-06 1.76556e-31 -6.36111e-15 1.59028e-15 1.59028e-15 0.0 1.59028e-15 12.7179 -3.38534e-07 3.6896e-06 1.59028e-15 -3.18056e-15 -6.36111e-15 -3.18055e-15 -1.27222e-14 -6.36111e-15 20.451 2.13561e-06 4.66857e-06 -5.59711e-07 -9.78871e-07 1.24245e-06 1.11942e-06 1.95774e-06 -2.4849e-06 43.7139 5.29982e-06 -4.35576e-06 -4.8428e-07 -7.08272e-07 1.41429e-06 4.77083e-15 1.27222e-14 3.18055e-15 8.255700209334774 4.332382601605357 13.439473060293452 -62.05640334367595 36.14114939341241 -2.7183879514642477 17.275800180601657 -21.089831487997596 -56.281960441843 -15.340933404261165 -0.7420030771603422 2.3432225393564887 4.41974 -2.75119 -31.8364 2.03418e-06 8.96391e-07 2.71781e-05 3.54379e-06 -1.37708e-07 7.74142e-07 -99.3752 -3.44396e-06 -1.15962e-07 -2.94194e-05 8.15215e-07 -1.12913e-05 -1.15373e-06 -7.17353e-08 -2.96415e-06 -112.724 2.1834e-06 6.07179e-06 -2.81255e-05 -3.4463e-06 7.51827e-08 -9.56363e-07 -5.99521e-07 6.03149e-07 -94.5227 -9.2214e-07 -5.10994e-06 6.36111e-15 0.0 -1.78906e-14 1.2491e-06 6.621e-07 -9.2051e-07 -89.4629 1.15124e-05 -2.27079e-06 -1.9342e-05 1.85979e-06 1.38071e-06 -4.41391e-32 3.18056e-15 7.95139e-16 3.97569e-16 -1.09925e-15 -1.59028e-15 -20.1051 -0.55943 -19.9906 2.43385e-06 39.5646 -2.64641e-06 4.82005 -16.7989 -10.6968 3.97569e-16 0.0 -3.18056e-15 4.85298e-07 6.71905 -2.96902e-06 -14.338 7.94412 21.3297 1.10858e-05 13.1511 -7.29341e-07 5.8046 -7.45139 -3.37426 3.97569e-16 0.0 3.18055e-15 -2.06241e-08 0.0983294 7.19633e-06
0.0 0.0 0.0 -0.0 0.0 -0.0 1.604418055497783 2.6029893486999827 -2.0715684741014275 -0.9810425322243304 3.9244222881857778 0.4629261183890921 -0.7352637308056337 -0.8936723981934307 -0.608312070990369 -0.03555198372790232 -0.06213765978811153 -0.39963550986885243 -0.9886651483056497 13.530900324426486 0.44977150628903495 0.13814584355616769 -0.5312112039323948 1.2286415478395027 0.20412888322915285 -16.41009810618867 0.10340870187154377 -7.670048149190046 4.763508431748858 -15.266380333032847 77.34282647744057 23.002312340984783 3.327973540537792 -15.55849513537447 -11.346537452019357 48.58315358824991 12.181091659540101 -0.02702140568027093 -0.057650379328568396 -3.86536 -0.725977 10.6206 -1.70868e-06 -5.05035e-06 -4.22763e-05 5.3837e-07 8.68739e-07 -7.6876e-07 3.79151 9.92397e-06 1.68822e-06 1.76556e-31 -6.36111e-15 1.59028e-15 1.59028e-15 0.0 1.59028e-15 12.7179 -3.38534e-07 3.6896e-06 1.59028e-15 -3.18056e-15 -6.36111e-15 -3.18055e-15 -1.27222e-14 -6.36111e-15 20.451 2.13561e-06 4.66857e-06 -5.59711e-07 -9.78871e-07 1.24245e-06 1.11942e-06 1.95774e-06 -2.4849e-06 43.7139 5.29982e-06 -4.35576e-06 -4.8428e-07 -7.08272e-07 1.41429e-06 4.77083e-15 1.27222e-14 3.18055e-15 9.329612382166468 4.762578325573322 13.310653534512594 -57.57563817430433 40.27521016876569 -9.227109712418086 19.561997181586076 -24.99022584535522 -59.40720447760228 -12.961588966919788 -0.3813858100910565 1.1319213371899595 4.41974 -2.75119 -31.8364 2.03418e-06 8.96391e-07 2.71781e-05 3.54379e-06 -1.37708e-07 7.74142e-07 -99.3752 -3.44396e-06 -1.15962e-07 -2.94194e-05 8.15215e-07 -1.12913e-05 -1.15373e-06 -7.17353e-08 -2.96415e-06 -112.724 2.1834e-06 6.07179e-06 -2.81255e-05 -3.4463e-06 7.51827e-08 -9.56363e-07 -5.99521e-07 6.03149e-07 -94.5227 -9.2214e-07 -5.10994e-06 6.36111e-15 0.0 -1.78906e-14 1.2491e-06 6.621e-07 -9.2051e-07 -89.4629 1.15124e-05 -2.27079e-06 -1.9342e-05 1.85979e-06 1.38071e-06 -4.41391e-32 3.18056e-15 7.95139e-16 3.97569e-16 -1.09925e-15 -1.59028e-15 -20.1051 -0.55943 -19.9906 2.43385e-06 39.5646 -2.64641e-06 4.82005 -16.7989 -10.6968 3.97569e-16 0.0 -3.18056e-15 4.85298e-07 6.71905 -2.96902e-06 -14.338 7.94412 21.3297 1.10858e-05 13.1511 -7.29341e-07 5.8046 -7.45139 -3.37426 3.97569e-16 0.0 3.18055e-15 -2.06241e-08 0.0983294 7.19633e-06
